<?xml version="1.0" encoding="UTF-8" standalone="no"?>
<!DOCTYPE svg PUBLIC "-//W3C//DTD SVG 1.1//EN"
 "http://www.w3.org/Graphics/SVG/1.1/DTD/svg11.dtd">
<!-- Generated by graphviz version 2.38.0 (20140413.2041)
 -->
<!-- Title: G Pages: 1 -->
<svg width="298pt" height="244pt"
 viewBox="0.00 0.00 298.00 244.00" xmlns="http://www.w3.org/2000/svg" xmlns:xlink="http://www.w3.org/1999/xlink">
<g id="graph0" class="graph" transform="scale(1 1) rotate(0) translate(4 240)">
<title>G</title>
<!-- worker1 -->
<g id="node1" class="node"><title>worker1</title>
<polygon fill="#ddddff" stroke="black" points="0,-189.5 0,-235.5 59,-235.5 59,-189.5 0,-189.5"/>
<text text-anchor="middle" x="29.5" y="-220.3" font-family="Roboto" font-size="14.00">worker</text>
<polyline fill="none" stroke="black" points="0,-212.5 59,-212.5 "/>
<text text-anchor="middle" x="29.5" y="-197.3" font-family="Roboto" font-size="14.00">REQ</text>
</g>
<!-- router -->
<g id="node5" class="node"><title>router</title>
<polygon fill="#ddddff" stroke="black" points="109.5,-83.5 109.5,-152.5 179.5,-152.5 179.5,-83.5 109.5,-83.5"/>
<text text-anchor="middle" x="144.5" y="-137.3" font-family="Roboto" font-size="14.00">ROUTER</text>
<polyline fill="none" stroke="black" points="109.5,-129.5 179.5,-129.5 "/>
<text text-anchor="middle" x="144.5" y="-114.3" font-family="Roboto" font-size="14.00">router</text>
<polyline fill="none" stroke="black" points="109.5,-106.5 179.5,-106.5 "/>
<text text-anchor="middle" x="144.5" y="-91.3" font-family="Roboto" font-size="14.00">ROUTER</text>
</g>
<!-- worker1&#45;&gt;router -->
<g id="edge1" class="edge"><title>worker1:q&#45;&gt;router:back</title>
<path fill="none" stroke="black" d="M66.0634,-191.861C66.3948,-190.881 66.8419,-189.909 67.5,-189 81.6434,-169.473 81.037,-148.059 98.3933,-142.422"/>
<polygon fill="black" stroke="black" points="62.9716,-190.197 60.5,-200.5 68.8569,-193.987 62.9716,-190.197"/>
<polygon fill="black" stroke="black" points="99.0853,-145.859 108.5,-141 98.1098,-138.928 99.0853,-145.859"/>
</g>
<!-- worker2 -->
<g id="node2" class="node"><title>worker2</title>
<polygon fill="#ddddff" stroke="black" points="77,-189.5 77,-235.5 136,-235.5 136,-189.5 77,-189.5"/>
<text text-anchor="middle" x="106.5" y="-220.3" font-family="Roboto" font-size="14.00">worker</text>
<polyline fill="none" stroke="black" points="77,-212.5 136,-212.5 "/>
<text text-anchor="middle" x="106.5" y="-197.3" font-family="Roboto" font-size="14.00">REQ</text>
</g>
<!-- worker2&#45;&gt;router -->
<g id="edge2" class="edge"><title>worker2:q&#45;&gt;router:back</title>
<path fill="none" stroke="black" d="M109.74,-179.34C116.919,-170.815 134.097,-171.182 141.268,-162.65"/>
<polygon fill="black" stroke="black" points="106.362,-178.406 106.5,-189 112.998,-180.632 106.362,-178.406"/>
<polygon fill="black" stroke="black" points="144.643,-163.594 144.5,-153 138.006,-161.371 144.643,-163.594"/>
</g>
<!-- worker3 -->
<g id="node3" class="node"><title>worker3</title>
<polygon fill="#ddddff" stroke="black" points="154,-189.5 154,-235.5 213,-235.5 213,-189.5 154,-189.5"/>
<text text-anchor="middle" x="183.5" y="-220.3" font-family="Roboto" font-size="14.00">worker</text>
<polyline fill="none" stroke="black" points="154,-212.5 213,-212.5 "/>
<text text-anchor="middle" x="183.5" y="-197.3" font-family="Roboto" font-size="14.00">REQ</text>
</g>
<!-- worker3&#45;&gt;router -->
<g id="edge3" class="edge"><title>worker3:q&#45;&gt;router:back</title>
<path fill="none" stroke="black" d="M184.574,-178.978C187.163,-165.432 193.286,-151.739 189.797,-145.108"/>
<polygon fill="black" stroke="black" points="181.085,-178.684 183.5,-189 188.046,-179.43 181.085,-178.684"/>
<polygon fill="black" stroke="black" points="191.061,-141.84 180.5,-141 188.232,-148.243 191.061,-141.84"/>
</g>
<!-- worker4 -->
<g id="node4" class="node"><title>worker4</title>
<polygon fill="#ddddff" stroke="black" points="231,-189.5 231,-235.5 290,-235.5 290,-189.5 231,-189.5"/>
<text text-anchor="middle" x="260.5" y="-220.3" font-family="Roboto" font-size="14.00">worker</text>
<polyline fill="none" stroke="black" points="231,-212.5 290,-212.5 "/>
<text text-anchor="middle" x="260.5" y="-197.3" font-family="Roboto" font-size="14.00">REQ</text>
</g>
<!-- worker4&#45;&gt;router -->
<g id="edge4" class="edge"><title>worker4:q&#45;&gt;router:back</title>
<path fill="none" stroke="black" d="M223.947,-191.853C223.614,-190.874 223.164,-189.905 222.5,-189 208.093,-169.356 208.365,-148.026 190.735,-142.415"/>
<polygon fill="black" stroke="black" points="221.152,-193.977 229.5,-200.5 227.042,-190.194 221.152,-193.977"/>
<polygon fill="black" stroke="black" points="190.885,-138.903 180.5,-141 189.926,-145.837 190.885,-138.903"/>
</g>
<!-- client1 -->
<g id="node6" class="node"><title>client1</title>
<polygon fill="#ddddff" stroke="black" points="9.5,-0.5 9.5,-46.5 63.5,-46.5 63.5,-0.5 9.5,-0.5"/>
<text text-anchor="middle" x="36.5" y="-31.3" font-family="Roboto" font-size="14.00">REQ</text>
<polyline fill="none" stroke="black" points="9.5,-23.5 63.5,-23.5 "/>
<text text-anchor="middle" x="36.5" y="-8.3" font-family="Roboto" font-size="14.00">client</text>
</g>
<!-- router&#45;&gt;client1 -->
<g id="edge5" class="edge"><title>router:front&#45;&gt;client1:q</title>
<path fill="none" stroke="black" d="M98.6236,-93.3578C83.2162,-87.2722 85.7986,-65.407 72.5,-47 71.7024,-45.896 71.1689,-44.7247 70.7569,-43.5684"/>
<polygon fill="black" stroke="black" points="98.0613,-96.8123 108.5,-95 99.2095,-89.9071 98.0613,-96.8123"/>
<polygon fill="black" stroke="black" points="73.3939,-41.2575 64.5,-35.5 67.8623,-45.5472 73.3939,-41.2575"/>
</g>
<!-- client2 -->
<g id="node7" class="node"><title>client2</title>
<polygon fill="#ddddff" stroke="black" points="81.5,-0.5 81.5,-46.5 135.5,-46.5 135.5,-0.5 81.5,-0.5"/>
<text text-anchor="middle" x="108.5" y="-31.3" font-family="Roboto" font-size="14.00">REQ</text>
<polyline fill="none" stroke="black" points="81.5,-23.5 135.5,-23.5 "/>
<text text-anchor="middle" x="108.5" y="-8.3" font-family="Roboto" font-size="14.00">client</text>
</g>
<!-- router&#45;&gt;client2 -->
<g id="edge6" class="edge"><title>router:front&#45;&gt;client2:q</title>
<path fill="none" stroke="black" d="M141.178,-73.2143C134.354,-65.1814 118.824,-64.8593 111.919,-56.8986"/>
<polygon fill="black" stroke="black" points="137.971,-74.656 144.5,-83 144.599,-72.4056 137.971,-74.656"/>
<polygon fill="black" stroke="black" points="115.073,-55.3092 108.5,-47 108.457,-57.5947 115.073,-55.3092"/>
</g>
<!-- client3 -->
<g id="node8" class="node"><title>client3</title>
<polygon fill="#ddddff" stroke="black" points="153.5,-0.5 153.5,-46.5 207.5,-46.5 207.5,-0.5 153.5,-0.5"/>
<text text-anchor="middle" x="180.5" y="-31.3" font-family="Roboto" font-size="14.00">REQ</text>
<polyline fill="none" stroke="black" points="153.5,-23.5 207.5,-23.5 "/>
<text text-anchor="middle" x="180.5" y="-8.3" font-family="Roboto" font-size="14.00">client</text>
</g>
<!-- router&#45;&gt;client3 -->
<g id="edge7" class="edge"><title>router:front&#45;&gt;client3:q</title>
<path fill="none" stroke="black" d="M147.822,-73.2143C154.646,-65.1814 170.176,-64.8593 177.081,-56.8986"/>
<polygon fill="black" stroke="black" points="144.401,-72.4056 144.5,-83 151.029,-74.656 144.401,-72.4056"/>
<polygon fill="black" stroke="black" points="180.543,-57.5947 180.5,-47 173.927,-55.3092 180.543,-57.5947"/>
</g>
<!-- client4 -->
<g id="node9" class="node"><title>client4</title>
<polygon fill="#ddddff" stroke="black" points="225.5,-0.5 225.5,-46.5 279.5,-46.5 279.5,-0.5 225.5,-0.5"/>
<text text-anchor="middle" x="252.5" y="-31.3" font-family="Roboto" font-size="14.00">REQ</text>
<polyline fill="none" stroke="black" points="225.5,-23.5 279.5,-23.5 "/>
<text text-anchor="middle" x="252.5" y="-8.3" font-family="Roboto" font-size="14.00">client</text>
</g>
<!-- router&#45;&gt;client4 -->
<g id="edge8" class="edge"><title>router:front&#45;&gt;client4:q</title>
<path fill="none" stroke="black" d="M190.376,-93.3578C205.784,-87.2722 203.201,-65.407 216.5,-47 217.298,-45.896 217.831,-44.7247 218.243,-43.5684"/>
<polygon fill="black" stroke="black" points="189.79,-89.9071 180.5,-95 190.939,-96.8123 189.79,-89.9071"/>
<polygon fill="black" stroke="black" points="221.138,-45.5472 224.5,-35.5 215.606,-41.2575 221.138,-45.5472"/>
</g>
</g>
</svg>
