<?xml version="1.0" encoding="UTF-8" standalone="no"?>
<!DOCTYPE svg PUBLIC "-//W3C//DTD SVG 1.1//EN"
 "http://www.w3.org/Graphics/SVG/1.1/DTD/svg11.dtd">
<!-- Generated by graphviz version 2.38.0 (20140413.2041)
 -->
<!-- Title: G Pages: 1 -->
<svg width="278pt" height="138pt"
 viewBox="0.00 0.00 278.00 138.00" xmlns="http://www.w3.org/2000/svg" xmlns:xlink="http://www.w3.org/1999/xlink">
<g id="graph0" class="graph" transform="scale(1 1) rotate(0) translate(4 134)">
<title>G</title>
<!-- worker -->
<g id="node1" class="node"><title>worker</title>
<polygon fill="#ddddff" stroke="black" points="105.5,-83.5 105.5,-129.5 164.5,-129.5 164.5,-83.5 105.5,-83.5"/>
<text text-anchor="middle" x="135" y="-114.3" font-family="Roboto" font-size="14.00">worker</text>
<polyline fill="none" stroke="black" points="105.5,-106.5 164.5,-106.5 "/>
<text text-anchor="middle" x="135" y="-91.3" font-family="Roboto" font-size="14.00">REP</text>
</g>
<!-- client1 -->
<g id="node2" class="node"><title>client1</title>
<polygon fill="#ddddff" stroke="black" points="0,-0.5 0,-46.5 54,-46.5 54,-0.5 0,-0.5"/>
<text text-anchor="middle" x="27" y="-31.3" font-family="Roboto" font-size="14.00">REQ</text>
<polyline fill="none" stroke="black" points="0,-23.5 54,-23.5 "/>
<text text-anchor="middle" x="27" y="-8.3" font-family="Roboto" font-size="14.00">client</text>
</g>
<!-- worker&#45;&gt;client1 -->
<g id="edge1" class="edge"><title>worker:q&#45;&gt;client1:q</title>
<path fill="none" stroke="black" d="M93.9785,-93.0695C76.8161,-87.4051 77.6929,-65.9338 63,-47 62.165,-45.924 61.6104,-44.7685 61.1884,-43.6197"/>
<polygon fill="black" stroke="black" points="93.6057,-96.5517 104,-94.5 94.595,-89.6219 93.6057,-96.5517"/>
<polygon fill="black" stroke="black" points="63.8454,-41.3318 55,-35.5 58.278,-45.575 63.8454,-41.3318"/>
</g>
<!-- client2 -->
<g id="node3" class="node"><title>client2</title>
<polygon fill="#ddddff" stroke="black" points="72,-0.5 72,-46.5 126,-46.5 126,-0.5 72,-0.5"/>
<text text-anchor="middle" x="99" y="-31.3" font-family="Roboto" font-size="14.00">REQ</text>
<polyline fill="none" stroke="black" points="72,-23.5 126,-23.5 "/>
<text text-anchor="middle" x="99" y="-8.3" font-family="Roboto" font-size="14.00">client</text>
</g>
<!-- worker&#45;&gt;client2 -->
<g id="edge2" class="edge"><title>worker:q&#45;&gt;client2:q</title>
<path fill="none" stroke="black" d="M131.678,-73.2143C124.854,-65.1814 109.324,-64.8593 102.419,-56.8986"/>
<polygon fill="black" stroke="black" points="128.471,-74.656 135,-83 135.099,-72.4056 128.471,-74.656"/>
<polygon fill="black" stroke="black" points="105.573,-55.3092 99,-47 98.9568,-57.5947 105.573,-55.3092"/>
</g>
<!-- client3 -->
<g id="node4" class="node"><title>client3</title>
<polygon fill="#ddddff" stroke="black" points="144,-0.5 144,-46.5 198,-46.5 198,-0.5 144,-0.5"/>
<text text-anchor="middle" x="171" y="-31.3" font-family="Roboto" font-size="14.00">REQ</text>
<polyline fill="none" stroke="black" points="144,-23.5 198,-23.5 "/>
<text text-anchor="middle" x="171" y="-8.3" font-family="Roboto" font-size="14.00">client</text>
</g>
<!-- worker&#45;&gt;client3 -->
<g id="edge3" class="edge"><title>worker:q&#45;&gt;client3:q</title>
<path fill="none" stroke="black" d="M138.322,-73.2143C145.146,-65.1814 160.676,-64.8593 167.581,-56.8986"/>
<polygon fill="black" stroke="black" points="134.901,-72.4056 135,-83 141.529,-74.656 134.901,-72.4056"/>
<polygon fill="black" stroke="black" points="171.043,-57.5947 171,-47 164.427,-55.3092 171.043,-57.5947"/>
</g>
<!-- client4 -->
<g id="node5" class="node"><title>client4</title>
<polygon fill="#ddddff" stroke="black" points="216,-0.5 216,-46.5 270,-46.5 270,-0.5 216,-0.5"/>
<text text-anchor="middle" x="243" y="-31.3" font-family="Roboto" font-size="14.00">REQ</text>
<polyline fill="none" stroke="black" points="216,-23.5 270,-23.5 "/>
<text text-anchor="middle" x="243" y="-8.3" font-family="Roboto" font-size="14.00">client</text>
</g>
<!-- worker&#45;&gt;client4 -->
<g id="edge4" class="edge"><title>worker:q&#45;&gt;client4:q</title>
<path fill="none" stroke="black" d="M176.022,-93.0695C193.184,-87.4051 192.307,-65.9338 207,-47 207.835,-45.924 208.39,-44.7685 208.812,-43.6197"/>
<polygon fill="black" stroke="black" points="175.405,-89.6219 166,-94.5 176.394,-96.5517 175.405,-89.6219"/>
<polygon fill="black" stroke="black" points="211.722,-45.575 215,-35.5 206.155,-41.3318 211.722,-45.575"/>
</g>
</g>
</svg>
